<mxfile host="app.diagrams.net" agent="Mozilla/5.0 (Windows NT 10.0; Win64; x64) AppleWebKit/537.36 (KHTML, like Gecko) Chrome/131.0.0.0 Safari/537.36" version="26.0.4">
  <diagram id="C5RBs43oDa-KdzZeNtuy" name="Page-1">
    <mxGraphModel dx="2117" dy="1726" grid="1" gridSize="10" guides="1" tooltips="1" connect="1" arrows="1" fold="1" page="1" pageScale="1" pageWidth="827" pageHeight="1169" math="0" shadow="0">
      <root>
        <mxCell id="WIyWlLk6GJQsqaUBKTNV-0" />
        <mxCell id="WIyWlLk6GJQsqaUBKTNV-1" parent="WIyWlLk6GJQsqaUBKTNV-0" />
        <mxCell id="WIyWlLk6GJQsqaUBKTNV-2" value="" style="rounded=0;html=1;jettySize=auto;orthogonalLoop=1;fontSize=11;endArrow=block;endFill=0;endSize=8;strokeWidth=1;shadow=0;labelBackgroundColor=none;edgeStyle=orthogonalEdgeStyle;entryX=0.5;entryY=0;entryDx=0;entryDy=0;" parent="WIyWlLk6GJQsqaUBKTNV-1" source="WIyWlLk6GJQsqaUBKTNV-3" target="WIyWlLk6GJQsqaUBKTNV-10" edge="1">
          <mxGeometry relative="1" as="geometry">
            <mxPoint x="220" y="170" as="targetPoint" />
            <Array as="points">
              <mxPoint x="220" y="145" />
              <mxPoint x="221" y="145" />
            </Array>
          </mxGeometry>
        </mxCell>
        <mxCell id="CJslXRAgKoIsi2ZhoO2X-1" value="" style="edgeStyle=orthogonalEdgeStyle;rounded=0;orthogonalLoop=1;jettySize=auto;html=1;" edge="1" parent="WIyWlLk6GJQsqaUBKTNV-1" source="WIyWlLk6GJQsqaUBKTNV-3" target="CJslXRAgKoIsi2ZhoO2X-0">
          <mxGeometry relative="1" as="geometry" />
        </mxCell>
        <mxCell id="WIyWlLk6GJQsqaUBKTNV-3" value="Přihlášení" style="rounded=1;whiteSpace=wrap;html=1;fontSize=12;glass=0;strokeWidth=1;shadow=0;" parent="WIyWlLk6GJQsqaUBKTNV-1" vertex="1">
          <mxGeometry x="160" y="80" width="120" height="40" as="geometry" />
        </mxCell>
        <mxCell id="WIyWlLk6GJQsqaUBKTNV-9" value="Ano" style="edgeStyle=orthogonalEdgeStyle;rounded=0;html=1;jettySize=auto;orthogonalLoop=1;fontSize=11;endArrow=block;endFill=0;endSize=8;strokeWidth=1;shadow=0;labelBackgroundColor=none;" parent="WIyWlLk6GJQsqaUBKTNV-1" source="WIyWlLk6GJQsqaUBKTNV-10" target="WIyWlLk6GJQsqaUBKTNV-12" edge="1">
          <mxGeometry y="10" relative="1" as="geometry">
            <mxPoint as="offset" />
          </mxGeometry>
        </mxCell>
        <mxCell id="CJslXRAgKoIsi2ZhoO2X-42" style="edgeStyle=orthogonalEdgeStyle;rounded=0;orthogonalLoop=1;jettySize=auto;html=1;exitX=0;exitY=0.5;exitDx=0;exitDy=0;" edge="1" parent="WIyWlLk6GJQsqaUBKTNV-1" source="WIyWlLk6GJQsqaUBKTNV-10">
          <mxGeometry relative="1" as="geometry">
            <mxPoint x="140" y="330" as="targetPoint" />
          </mxGeometry>
        </mxCell>
        <mxCell id="WIyWlLk6GJQsqaUBKTNV-10" value="Úspěšné přihlášení" style="rhombus;whiteSpace=wrap;html=1;shadow=0;fontFamily=Helvetica;fontSize=12;align=center;strokeWidth=1;spacing=6;spacingTop=-4;" parent="WIyWlLk6GJQsqaUBKTNV-1" vertex="1">
          <mxGeometry x="170" y="290" width="100" height="80" as="geometry" />
        </mxCell>
        <mxCell id="CJslXRAgKoIsi2ZhoO2X-3" value="" style="edgeStyle=orthogonalEdgeStyle;rounded=0;orthogonalLoop=1;jettySize=auto;html=1;" edge="1" parent="WIyWlLk6GJQsqaUBKTNV-1" source="WIyWlLk6GJQsqaUBKTNV-12" target="CJslXRAgKoIsi2ZhoO2X-2">
          <mxGeometry relative="1" as="geometry" />
        </mxCell>
        <mxCell id="WIyWlLk6GJQsqaUBKTNV-12" value="Úvodní strana" style="rounded=1;whiteSpace=wrap;html=1;fontSize=12;glass=0;strokeWidth=1;shadow=0;" parent="WIyWlLk6GJQsqaUBKTNV-1" vertex="1">
          <mxGeometry x="320" y="310" width="120" height="40" as="geometry" />
        </mxCell>
        <mxCell id="CJslXRAgKoIsi2ZhoO2X-0" value="" style="shape=waypoint;sketch=0;size=6;pointerEvents=1;points=[];fillColor=default;resizable=0;rotatable=0;perimeter=centerPerimeter;snapToPoint=1;rounded=1;glass=0;strokeWidth=1;shadow=0;" vertex="1" parent="WIyWlLk6GJQsqaUBKTNV-1">
          <mxGeometry x="210" y="20" width="20" height="20" as="geometry" />
        </mxCell>
        <mxCell id="CJslXRAgKoIsi2ZhoO2X-5" value="" style="edgeStyle=orthogonalEdgeStyle;rounded=0;orthogonalLoop=1;jettySize=auto;html=1;" edge="1" parent="WIyWlLk6GJQsqaUBKTNV-1" source="CJslXRAgKoIsi2ZhoO2X-2" target="CJslXRAgKoIsi2ZhoO2X-4">
          <mxGeometry relative="1" as="geometry" />
        </mxCell>
        <mxCell id="CJslXRAgKoIsi2ZhoO2X-7" value="" style="edgeStyle=orthogonalEdgeStyle;rounded=0;orthogonalLoop=1;jettySize=auto;html=1;" edge="1" parent="WIyWlLk6GJQsqaUBKTNV-1" source="CJslXRAgKoIsi2ZhoO2X-2" target="CJslXRAgKoIsi2ZhoO2X-6">
          <mxGeometry relative="1" as="geometry" />
        </mxCell>
        <mxCell id="CJslXRAgKoIsi2ZhoO2X-9" value="" style="edgeStyle=orthogonalEdgeStyle;rounded=0;orthogonalLoop=1;jettySize=auto;html=1;" edge="1" parent="WIyWlLk6GJQsqaUBKTNV-1" source="CJslXRAgKoIsi2ZhoO2X-2" target="CJslXRAgKoIsi2ZhoO2X-8">
          <mxGeometry relative="1" as="geometry" />
        </mxCell>
        <mxCell id="CJslXRAgKoIsi2ZhoO2X-2" value="Menu" style="rhombus;whiteSpace=wrap;html=1;rounded=1;glass=0;strokeWidth=1;shadow=0;" vertex="1" parent="WIyWlLk6GJQsqaUBKTNV-1">
          <mxGeometry x="340" y="410" width="80" height="80" as="geometry" />
        </mxCell>
        <mxCell id="CJslXRAgKoIsi2ZhoO2X-19" value="" style="edgeStyle=orthogonalEdgeStyle;rounded=0;orthogonalLoop=1;jettySize=auto;html=1;" edge="1" parent="WIyWlLk6GJQsqaUBKTNV-1" source="CJslXRAgKoIsi2ZhoO2X-4" target="CJslXRAgKoIsi2ZhoO2X-18">
          <mxGeometry relative="1" as="geometry" />
        </mxCell>
        <mxCell id="CJslXRAgKoIsi2ZhoO2X-4" value="Přidat byt/pokoj" style="whiteSpace=wrap;html=1;rounded=1;glass=0;strokeWidth=1;shadow=0;" vertex="1" parent="WIyWlLk6GJQsqaUBKTNV-1">
          <mxGeometry x="160" y="420" width="120" height="60" as="geometry" />
        </mxCell>
        <mxCell id="CJslXRAgKoIsi2ZhoO2X-6" value="O nás" style="whiteSpace=wrap;html=1;rounded=1;glass=0;strokeWidth=1;shadow=0;" vertex="1" parent="WIyWlLk6GJQsqaUBKTNV-1">
          <mxGeometry x="480" y="420" width="120" height="60" as="geometry" />
        </mxCell>
        <mxCell id="CJslXRAgKoIsi2ZhoO2X-11" value="" style="edgeStyle=orthogonalEdgeStyle;rounded=0;orthogonalLoop=1;jettySize=auto;html=1;" edge="1" parent="WIyWlLk6GJQsqaUBKTNV-1" source="CJslXRAgKoIsi2ZhoO2X-8" target="CJslXRAgKoIsi2ZhoO2X-10">
          <mxGeometry relative="1" as="geometry" />
        </mxCell>
        <mxCell id="CJslXRAgKoIsi2ZhoO2X-8" value="Nabídka bytů/pokojů" style="whiteSpace=wrap;html=1;rounded=1;glass=0;strokeWidth=1;shadow=0;" vertex="1" parent="WIyWlLk6GJQsqaUBKTNV-1">
          <mxGeometry x="320" y="580" width="120" height="60" as="geometry" />
        </mxCell>
        <mxCell id="CJslXRAgKoIsi2ZhoO2X-13" value="" style="edgeStyle=orthogonalEdgeStyle;rounded=0;orthogonalLoop=1;jettySize=auto;html=1;" edge="1" parent="WIyWlLk6GJQsqaUBKTNV-1" source="CJslXRAgKoIsi2ZhoO2X-10" target="CJslXRAgKoIsi2ZhoO2X-12">
          <mxGeometry relative="1" as="geometry" />
        </mxCell>
        <mxCell id="CJslXRAgKoIsi2ZhoO2X-10" value="Rozkliknutí inzerátu" style="rhombus;whiteSpace=wrap;html=1;rounded=1;glass=0;strokeWidth=1;shadow=0;" vertex="1" parent="WIyWlLk6GJQsqaUBKTNV-1">
          <mxGeometry x="340" y="710" width="80" height="80" as="geometry" />
        </mxCell>
        <mxCell id="CJslXRAgKoIsi2ZhoO2X-15" value="" style="edgeStyle=orthogonalEdgeStyle;rounded=0;orthogonalLoop=1;jettySize=auto;html=1;" edge="1" parent="WIyWlLk6GJQsqaUBKTNV-1" source="CJslXRAgKoIsi2ZhoO2X-12" target="CJslXRAgKoIsi2ZhoO2X-14">
          <mxGeometry relative="1" as="geometry" />
        </mxCell>
        <mxCell id="CJslXRAgKoIsi2ZhoO2X-12" value="Stránka inzerátu" style="rounded=1;whiteSpace=wrap;html=1;glass=0;strokeWidth=1;shadow=0;" vertex="1" parent="WIyWlLk6GJQsqaUBKTNV-1">
          <mxGeometry x="320" y="880" width="120" height="60" as="geometry" />
        </mxCell>
        <mxCell id="CJslXRAgKoIsi2ZhoO2X-17" value="" style="edgeStyle=orthogonalEdgeStyle;rounded=0;orthogonalLoop=1;jettySize=auto;html=1;" edge="1" parent="WIyWlLk6GJQsqaUBKTNV-1" source="CJslXRAgKoIsi2ZhoO2X-14" target="CJslXRAgKoIsi2ZhoO2X-16">
          <mxGeometry relative="1" as="geometry" />
        </mxCell>
        <mxCell id="CJslXRAgKoIsi2ZhoO2X-14" value="Kliknutí na tlačítko kontaktu" style="rhombus;whiteSpace=wrap;html=1;rounded=1;glass=0;strokeWidth=1;shadow=0;" vertex="1" parent="WIyWlLk6GJQsqaUBKTNV-1">
          <mxGeometry x="540" y="870" width="80" height="80" as="geometry" />
        </mxCell>
        <mxCell id="CJslXRAgKoIsi2ZhoO2X-35" style="edgeStyle=orthogonalEdgeStyle;rounded=0;orthogonalLoop=1;jettySize=auto;html=1;" edge="1" parent="WIyWlLk6GJQsqaUBKTNV-1" source="CJslXRAgKoIsi2ZhoO2X-16">
          <mxGeometry relative="1" as="geometry">
            <mxPoint x="740" y="1020" as="targetPoint" />
          </mxGeometry>
        </mxCell>
        <mxCell id="CJslXRAgKoIsi2ZhoO2X-16" value="Stránka s kontaktem" style="whiteSpace=wrap;html=1;rounded=1;glass=0;strokeWidth=1;shadow=0;" vertex="1" parent="WIyWlLk6GJQsqaUBKTNV-1">
          <mxGeometry x="680" y="880" width="120" height="60" as="geometry" />
        </mxCell>
        <mxCell id="CJslXRAgKoIsi2ZhoO2X-21" value="" style="edgeStyle=orthogonalEdgeStyle;rounded=0;orthogonalLoop=1;jettySize=auto;html=1;" edge="1" parent="WIyWlLk6GJQsqaUBKTNV-1" source="CJslXRAgKoIsi2ZhoO2X-18" target="CJslXRAgKoIsi2ZhoO2X-20">
          <mxGeometry relative="1" as="geometry" />
        </mxCell>
        <mxCell id="CJslXRAgKoIsi2ZhoO2X-18" value="Přidaní údajů" style="rhombus;whiteSpace=wrap;html=1;rounded=1;glass=0;strokeWidth=1;shadow=0;" vertex="1" parent="WIyWlLk6GJQsqaUBKTNV-1">
          <mxGeometry x="-20" y="410" width="80" height="80" as="geometry" />
        </mxCell>
        <mxCell id="CJslXRAgKoIsi2ZhoO2X-23" value="" style="edgeStyle=orthogonalEdgeStyle;rounded=0;orthogonalLoop=1;jettySize=auto;html=1;" edge="1" parent="WIyWlLk6GJQsqaUBKTNV-1" source="CJslXRAgKoIsi2ZhoO2X-20" target="CJslXRAgKoIsi2ZhoO2X-22">
          <mxGeometry relative="1" as="geometry" />
        </mxCell>
        <mxCell id="CJslXRAgKoIsi2ZhoO2X-20" value="Stránka s balíčky" style="rounded=1;whiteSpace=wrap;html=1;glass=0;strokeWidth=1;shadow=0;" vertex="1" parent="WIyWlLk6GJQsqaUBKTNV-1">
          <mxGeometry x="-40" y="580" width="120" height="60" as="geometry" />
        </mxCell>
        <mxCell id="CJslXRAgKoIsi2ZhoO2X-29" value="" style="edgeStyle=orthogonalEdgeStyle;rounded=0;orthogonalLoop=1;jettySize=auto;html=1;" edge="1" parent="WIyWlLk6GJQsqaUBKTNV-1" source="CJslXRAgKoIsi2ZhoO2X-22" target="CJslXRAgKoIsi2ZhoO2X-28">
          <mxGeometry relative="1" as="geometry" />
        </mxCell>
        <mxCell id="CJslXRAgKoIsi2ZhoO2X-22" value="Vybrání balíčku" style="rhombus;whiteSpace=wrap;html=1;rounded=1;glass=0;strokeWidth=1;shadow=0;" vertex="1" parent="WIyWlLk6GJQsqaUBKTNV-1">
          <mxGeometry x="-20" y="710" width="80" height="80" as="geometry" />
        </mxCell>
        <mxCell id="CJslXRAgKoIsi2ZhoO2X-31" value="" style="edgeStyle=orthogonalEdgeStyle;rounded=0;orthogonalLoop=1;jettySize=auto;html=1;" edge="1" parent="WIyWlLk6GJQsqaUBKTNV-1" source="CJslXRAgKoIsi2ZhoO2X-28" target="CJslXRAgKoIsi2ZhoO2X-30">
          <mxGeometry relative="1" as="geometry" />
        </mxCell>
        <mxCell id="CJslXRAgKoIsi2ZhoO2X-28" value="Stránka s platbou" style="whiteSpace=wrap;html=1;rounded=1;glass=0;strokeWidth=1;shadow=0;" vertex="1" parent="WIyWlLk6GJQsqaUBKTNV-1">
          <mxGeometry x="-40" y="880" width="120" height="60" as="geometry" />
        </mxCell>
        <mxCell id="CJslXRAgKoIsi2ZhoO2X-34" value="" style="edgeStyle=orthogonalEdgeStyle;rounded=0;orthogonalLoop=1;jettySize=auto;html=1;" edge="1" parent="WIyWlLk6GJQsqaUBKTNV-1" source="CJslXRAgKoIsi2ZhoO2X-30" target="CJslXRAgKoIsi2ZhoO2X-33">
          <mxGeometry relative="1" as="geometry" />
        </mxCell>
        <mxCell id="CJslXRAgKoIsi2ZhoO2X-30" value="Platba" style="rhombus;whiteSpace=wrap;html=1;rounded=1;glass=0;strokeWidth=1;shadow=0;" vertex="1" parent="WIyWlLk6GJQsqaUBKTNV-1">
          <mxGeometry x="-20" y="1010" width="80" height="80" as="geometry" />
        </mxCell>
        <mxCell id="CJslXRAgKoIsi2ZhoO2X-32" style="edgeStyle=orthogonalEdgeStyle;rounded=0;orthogonalLoop=1;jettySize=auto;html=1;entryX=0.33;entryY=0.37;entryDx=0;entryDy=0;entryPerimeter=0;" edge="1" parent="WIyWlLk6GJQsqaUBKTNV-1" source="CJslXRAgKoIsi2ZhoO2X-0" target="CJslXRAgKoIsi2ZhoO2X-0">
          <mxGeometry relative="1" as="geometry" />
        </mxCell>
        <mxCell id="CJslXRAgKoIsi2ZhoO2X-33" value="Potvrzení platby" style="whiteSpace=wrap;html=1;rounded=1;glass=0;strokeWidth=1;shadow=0;" vertex="1" parent="WIyWlLk6GJQsqaUBKTNV-1">
          <mxGeometry x="120" y="1020" width="120" height="60" as="geometry" />
        </mxCell>
        <mxCell id="CJslXRAgKoIsi2ZhoO2X-38" value="" style="edgeStyle=orthogonalEdgeStyle;rounded=0;orthogonalLoop=1;jettySize=auto;html=1;" edge="1" parent="WIyWlLk6GJQsqaUBKTNV-1" source="CJslXRAgKoIsi2ZhoO2X-33" target="CJslXRAgKoIsi2ZhoO2X-37">
          <mxGeometry relative="1" as="geometry">
            <mxPoint x="410" y="1050" as="targetPoint" />
            <mxPoint x="240" y="1050" as="sourcePoint" />
          </mxGeometry>
        </mxCell>
        <mxCell id="CJslXRAgKoIsi2ZhoO2X-37" value="" style="ellipse;whiteSpace=wrap;html=1;aspect=fixed;" vertex="1" parent="WIyWlLk6GJQsqaUBKTNV-1">
          <mxGeometry x="404" y="1040" width="20" height="20" as="geometry" />
        </mxCell>
        <mxCell id="CJslXRAgKoIsi2ZhoO2X-39" value="" style="shape=ellipse;fillColor=#000000;strokeColor=none;html=1;sketch=0;" vertex="1" parent="WIyWlLk6GJQsqaUBKTNV-1">
          <mxGeometry x="409" y="1045" width="10" height="10" as="geometry" />
        </mxCell>
        <mxCell id="CJslXRAgKoIsi2ZhoO2X-41" value="" style="shape=ellipse;fillColor=#000000;strokeColor=none;html=1;sketch=0;" vertex="1" parent="WIyWlLk6GJQsqaUBKTNV-1">
          <mxGeometry x="190" y="-20" width="60" height="60" as="geometry" />
        </mxCell>
        <mxCell id="CJslXRAgKoIsi2ZhoO2X-45" value="" style="edgeStyle=orthogonalEdgeStyle;rounded=0;orthogonalLoop=1;jettySize=auto;html=1;" edge="1" parent="WIyWlLk6GJQsqaUBKTNV-1" source="CJslXRAgKoIsi2ZhoO2X-43" target="CJslXRAgKoIsi2ZhoO2X-44">
          <mxGeometry relative="1" as="geometry" />
        </mxCell>
        <mxCell id="CJslXRAgKoIsi2ZhoO2X-43" value="Ne" style="text;html=1;align=center;verticalAlign=middle;resizable=0;points=[];autosize=1;strokeColor=none;fillColor=none;" vertex="1" parent="WIyWlLk6GJQsqaUBKTNV-1">
          <mxGeometry x="130" y="308" width="40" height="30" as="geometry" />
        </mxCell>
        <mxCell id="CJslXRAgKoIsi2ZhoO2X-44" value="Přihlášení" style="whiteSpace=wrap;html=1;" vertex="1" parent="WIyWlLk6GJQsqaUBKTNV-1">
          <mxGeometry x="10" y="308" width="120" height="60" as="geometry" />
        </mxCell>
        <mxCell id="CJslXRAgKoIsi2ZhoO2X-46" value="" style="ellipse;whiteSpace=wrap;html=1;aspect=fixed;" vertex="1" parent="WIyWlLk6GJQsqaUBKTNV-1">
          <mxGeometry x="730" y="1020" width="20" height="20" as="geometry" />
        </mxCell>
        <mxCell id="CJslXRAgKoIsi2ZhoO2X-47" value="" style="shape=ellipse;fillColor=#000000;strokeColor=none;html=1;sketch=0;" vertex="1" parent="WIyWlLk6GJQsqaUBKTNV-1">
          <mxGeometry x="735" y="1025" width="10" height="10" as="geometry" />
        </mxCell>
      </root>
    </mxGraphModel>
  </diagram>
</mxfile>
